<svg width="26" height="20" viewBox="0 0 26 20" fill="none" xmlns="http://www.w3.org/2000/svg">
<path d="M12.1695 5.29384L4.16732 11.8845V18.9978C4.16732 19.182 4.24048 19.3586 4.37072 19.4889C4.50095 19.6191 4.67758 19.6923 4.86176 19.6923L9.72548 19.6797C9.90905 19.6788 10.0848 19.6052 10.2143 19.4751C10.3438 19.3449 10.4165 19.1688 10.4164 18.9852V14.8312C10.4164 14.647 10.4896 14.4704 10.6198 14.3401C10.7501 14.2099 10.9267 14.1367 11.1109 14.1367H13.8887C14.0728 14.1367 14.2495 14.2099 14.3797 14.3401C14.51 14.4704 14.5831 14.647 14.5831 14.8312V18.9822C14.5828 19.0736 14.6006 19.1641 14.6354 19.2486C14.6701 19.3331 14.7212 19.4099 14.7857 19.4747C14.8503 19.5394 14.9269 19.5907 15.0113 19.6258C15.0957 19.6608 15.1862 19.6788 15.2776 19.6788L20.1395 19.6923C20.3237 19.6923 20.5004 19.6191 20.6306 19.4889C20.7608 19.3586 20.834 19.182 20.834 18.9978V11.8798L12.8335 5.29384C12.7395 5.21802 12.6223 5.17668 12.5015 5.17668C12.3807 5.17668 12.2635 5.21802 12.1695 5.29384ZM24.8097 9.77344L21.1812 6.78255V0.770833C21.1812 0.6327 21.1263 0.500224 21.0287 0.402549C20.931 0.304873 20.7985 0.25 20.6604 0.25H18.2298C18.0917 0.25 17.9592 0.304873 17.8615 0.402549C17.7639 0.500224 17.709 0.6327 17.709 0.770833V3.92231L13.8231 0.72526C13.4502 0.418394 12.9823 0.250613 12.4993 0.250613C12.0164 0.250613 11.5485 0.418394 11.1756 0.72526L0.189019 9.77344C0.136279 9.81703 0.0926449 9.87058 0.0606102 9.93104C0.0285755 9.9915 0.00876769 10.0577 0.00231864 10.1258C-0.0041304 10.1939 0.00290567 10.2626 0.0230248 10.328C0.043144 10.3934 0.0759519 10.4542 0.119574 10.5069L1.22634 11.8524C1.26985 11.9053 1.32336 11.9491 1.38381 11.9813C1.44426 12.0135 1.51047 12.0335 1.57864 12.04C1.64681 12.0466 1.71561 12.0397 1.7811 12.0196C1.84659 11.9996 1.90748 11.9668 1.96029 11.9232L12.1695 3.51432C12.2635 3.43851 12.3807 3.39717 12.5015 3.39717C12.6223 3.39717 12.7395 3.43851 12.8335 3.51432L23.0432 11.9232C23.0959 11.9668 23.1567 11.9996 23.2221 12.0197C23.2875 12.0398 23.3562 12.0469 23.4243 12.0404C23.4924 12.034 23.5586 12.0142 23.6191 11.9821C23.6795 11.9501 23.7331 11.9065 23.7767 11.8537L24.8835 10.5082C24.927 10.4552 24.9597 10.3941 24.9796 10.3284C24.9995 10.2628 25.0062 10.1938 24.9993 10.1255C24.9925 10.0572 24.9722 9.99096 24.9396 9.93054C24.9071 9.87012 24.8629 9.81673 24.8097 9.77344Z" fill="#FF6600"/>
</svg>
